<?xml version="1.0" encoding="UTF-8"?>
<svg version="1.1" xmlns="http://www.w3.org/2000/svg" width="27" height="20">
<path d="M0 0 C-0.33 1.32 -0.66 2.64 -1 4 C-0.01 4.33 0.98 4.66 2 5 C2.25 7.75 2.25 7.75 2 11 C0.0625 13.125 0.0625 13.125 -2 15 C-2.7872678 17.1381966 -2.7872678 17.1381966 -3 19 C-7.08718695 19.24042276 -10.17679443 18.42258812 -14 17 C-14 17.66 -14 18.32 -14 19 C-15.65 19 -17.3 19 -19 19 C-22 13.375 -22 13.375 -22 10 C-22.66 10 -23.32 10 -24 10 C-24.33 7.69 -24.66 5.38 -25 3 C-24.34 3.66 -23.68 4.32 -23 5 C-22.38125 4.195625 -21.7625 3.39125 -21.125 2.5625 C-16.24602852 -3.32096561 -6.87647853 -1.48680617 0 0 Z M-16 2 C-16 2.33 -16 2.66 -16 3 C-13.36 3 -10.72 3 -8 3 C-8 2.67 -8 2.34 -8 2 C-10.64 2 -13.28 2 -16 2 Z " fill="#444444" transform="translate(25,1)"/>
</svg>
